<svg xmlns="http://www.w3.org/2000/svg" version="1.1" xmlns:xlink="http://www.w3.org/1999/xlink" xmlns:svgjs="http://svgjs.dev/svgjs" width="1000" height="623" viewBox="0 0 1000 623"><g transform="matrix(1,0,0,1,-0.6060606060606233,0.2522267206477409)"><svg viewBox="0 0 396 247" data-background-color="#ffffff" preserveAspectRatio="xMidYMid meet" height="623" width="1000" xmlns="http://www.w3.org/2000/svg" xmlns:xlink="http://www.w3.org/1999/xlink"><g id="tight-bounds" transform="matrix(1,0,0,1,0.2400000000000091,-0.09999999999999432)"><svg viewBox="0 0 395.52 247.2" height="247.2" width="395.52"><g><svg></svg></g><g><svg viewBox="0 0 395.52 247.2" height="247.2" width="395.52"><g transform="matrix(1,0,0,1,75.54432,59.3351378343949)"><svg viewBox="0 0 244.43135999999998 128.5297243312102" height="128.5297243312102" width="244.43135999999998"><g><svg viewBox="0 0 244.43135999999998 128.5297243312102" height="128.5297243312102" width="244.43135999999998"><g><svg viewBox="0 0 244.43135999999998 128.5297243312102" height="128.5297243312102" width="244.43135999999998"><g><svg viewBox="0 0 244.43135999999998 128.5297243312102" height="128.5297243312102" width="244.43135999999998"><g id="textblocktransform"><svg viewBox="0 0 244.43135999999998 128.5297243312102" height="128.5297243312102" width="244.43135999999998" id="textblock"><g><svg viewBox="0 0 244.43135999999998 128.5297243312102" height="128.5297243312102" width="244.43135999999998"><g transform="matrix(1,0,0,1,0,0)"><svg width="244.43135999999998" viewBox="1.7 -36.15 70.64999999999999 37.15" height="128.5297243312102" data-palette-color="#915eff"><path d="M9.25-13.65L9.25-13.65 9.1-29.05Q9.1-31.3 9.15-31.95L9.15-31.95Q9.2-33.55 9.93-34.27 10.65-35 12.75-35L12.75-35 26.15-35Q28.25-35 28.98-34.27 29.7-33.55 29.75-31.95L29.75-31.95Q29.85-28.8 29.85-24.38 29.85-19.95 29.65-13.65L29.65-13.65Q29.5-3.9 19.6-0.8L19.6-0.8Q13.9 1 5 1L5 1Q3 1 2.35-0.2 1.7-1.4 1.7-4.38 1.7-7.35 4-7.6L4-7.6Q6.8-7.95 8.03-9.98 9.25-12 9.25-13.65ZM53.6 1L53.6 1Q44.6 1 39.37-3.58 34.15-8.15 34.15-16.5L34.15-16.5Q34.15-21.6 35.82-25.45 37.5-29.3 40.55-31.6L40.55-31.6Q46.6-36.15 56.5-36.15L56.5-36.15Q62.9-36.15 69.3-34.4L69.3-34.4Q71.75-33.6 71.75-30.45L71.75-30.45Q71.75-26.15 69.05-26.15L69.05-26.15Q68.6-26.15 66.1-26.55 63.6-26.95 62.6-26.95L62.6-26.95Q59.05-26.95 57.12-24.48 55.2-22 55.2-18.57 55.2-15.15 57-12.55 58.8-9.95 61.9-9.85L61.9-9.85Q64-9.75 69.35-9.75L69.35-9.75Q71.95-9.75 72.2-7.3L72.2-7.3Q72.35-6.4 72.35-5.48 72.35-4.55 72.2-3.6L72.2-3.6Q71.9-1.8 69.4-0.98 66.9-0.15 62.2 0.43 57.5 1 53.6 1Z" opacity="1" transform="matrix(1,0,0,1,0,0)" fill="#915eff" class="wordmark-text-0" data-fill-palette-color="primary" id="text-0"></path></svg></g></svg></g></svg></g></svg></g></svg></g></svg></g></svg></g><g><path d="M0 123.6c0-68.262 55.338-123.6 123.6-123.6 38.016 0 72.024 17.163 94.697 44.164l-7.703 0c-21.542-23.578-52.541-38.368-86.994-38.369-65.062 0-117.805 52.743-117.805 117.805 0 65.062 52.743 117.805 117.805 117.805 34.453 0 65.452-14.79 86.994-38.369l7.703 0c-22.673 27.001-56.681 44.164-94.697 44.164-68.262 0-123.6-55.338-123.6-123.6z" fill="#915eff" stroke="transparent" data-fill-palette-color="tertiary"></path></g></svg></g><defs></defs></svg><rect width="395.52" height="247.2" fill="none" stroke="none" visibility="hidden"></rect></g></svg></g></svg>